<svg width="24" height="24" viewBox="0 0 24 24" fill="none" xmlns="http://www.w3.org/2000/svg">
<path d="M20.9487 3.98639L20.0134 3.05075C19.9781 3.01545 19.9339 3 19.8876 3C19.8413 3 19.7972 3.01765 19.7619 3.05075L18.0831 4.73005C17.3533 4.23542 16.4917 3.97171 15.6101 3.97315C14.4807 3.97315 13.3512 4.40346 12.4886 5.26627L10.2407 7.5149C10.2078 7.54807 10.1894 7.59288 10.1894 7.63957C10.1894 7.68627 10.2078 7.73107 10.2407 7.76425L16.2344 13.7598C16.2697 13.7951 16.3139 13.8106 16.3602 13.8106C16.4043 13.8106 16.4506 13.7929 16.4859 13.7598L18.7339 11.5112C20.2538 9.9886 20.4325 7.63406 19.2699 5.91725L20.9487 4.23796C21.0171 4.16734 21.0171 4.0548 20.9487 3.98639ZM17.6706 10.4498L16.3602 11.7606L12.2393 7.63847L13.5497 6.32769C14.099 5.77823 14.8314 5.4737 15.6101 5.4737C16.3889 5.4737 17.1191 5.77602 17.6706 6.32769C18.2199 6.87716 18.5243 7.60978 18.5243 8.38875C18.5243 9.16771 18.2199 9.89812 17.6706 10.4498ZM13.4747 12.7668C13.4415 12.734 13.3968 12.7155 13.3501 12.7155C13.3034 12.7155 13.2586 12.734 13.2254 12.7668L11.7562 14.2365L9.76419 12.2438L11.2356 10.772C11.304 10.7036 11.304 10.591 11.2356 10.5226L10.4326 9.71938C10.3994 9.68653 10.3547 9.6681 10.308 9.6681C10.2613 9.6681 10.2165 9.68653 10.1833 9.71938L8.71192 11.1912L7.76333 10.2424C7.74686 10.2259 7.72723 10.2129 7.70563 10.2042C7.68402 10.1954 7.66088 10.1912 7.63758 10.1916C7.59346 10.1916 7.54714 10.2093 7.51184 10.2424L5.26611 12.491C3.74616 14.0136 3.56748 16.3682 4.73005 18.085L3.05127 19.7643C3.01842 19.7974 3 19.8422 3 19.8889C3 19.9356 3.01842 19.9804 3.05127 20.0136L3.98662 20.9492C4.02192 20.9846 4.06604 21 4.11236 21C4.15869 21 4.20281 20.9823 4.23811 20.9492L5.91689 19.27C6.66032 19.7753 7.52508 20.0268 8.38984 20.0268C9.51932 20.0268 10.6488 19.5965 11.5114 18.7337L13.7593 16.4851C13.8277 16.4167 13.8277 16.3042 13.7593 16.2357L12.8107 15.2869L14.2821 13.815C14.3505 13.7466 14.3505 13.6341 14.2821 13.5656L13.4747 12.7668ZM10.4481 17.6745C10.1781 17.946 9.85695 18.1612 9.50329 18.3078C9.14964 18.4544 8.77044 18.5294 8.38763 18.5285C7.60891 18.5285 6.87871 18.2262 6.32721 17.6745C6.05583 17.4044 5.84065 17.0832 5.69411 16.7295C5.54758 16.3757 5.47259 15.9964 5.47348 15.6135C5.47348 14.8345 5.7757 14.1041 6.32721 13.5524L7.63758 12.2416L11.7584 16.3637L10.4481 17.6745Z" fill="#414D63"/>
</svg>
