<svg width="24" height="24" viewBox="0 0 24 24" fill="none" xmlns="http://www.w3.org/2000/svg">
<path d="M16.6674 21H7.99319C7.6383 20.9995 7.2981 20.8583 7.04721 20.6073C6.79632 20.3563 6.65524 20.0161 6.65494 19.6612V5.89442C6.65494 5.7439 6.71474 5.59955 6.82117 5.49312C6.92761 5.38668 7.07195 5.32688 7.22247 5.32688C7.37299 5.32688 7.51736 5.38668 7.62379 5.49312C7.73023 5.59955 7.79001 5.7439 7.79001 5.89442V19.66C7.79016 19.7139 7.81161 19.7656 7.84966 19.8038C7.88772 19.8419 7.9393 19.8635 7.99319 19.8638H16.6674C16.7213 19.8635 16.7729 19.8419 16.811 19.8038C16.849 19.7656 16.8705 19.7139 16.8706 19.66V5.89442C16.8706 5.7439 16.9304 5.59955 17.0368 5.49312C17.1433 5.38668 17.2876 5.32688 17.4381 5.32688C17.5887 5.32688 17.733 5.38668 17.8395 5.49312C17.9459 5.59955 18.0057 5.7439 18.0057 5.89442V19.66C18.0057 20.0151 17.8647 20.3557 17.6138 20.6069C17.3629 20.8582 17.0225 20.9995 16.6674 21Z" fill="#414D63"/>
<path d="M10.3916 17.7088C10.2411 17.7088 10.0967 17.649 9.99029 17.5426C9.88386 17.4362 9.82405 17.2918 9.82405 17.1413V9.19579C9.82405 9.04527 9.88386 8.90092 9.99029 8.79449C10.0967 8.68805 10.2411 8.62825 10.3916 8.62825C10.5421 8.62825 10.6865 8.68805 10.7929 8.79449C10.8993 8.90092 10.9591 9.04527 10.9591 9.19579V17.1413C10.9591 17.2918 10.8993 17.4362 10.7929 17.5426C10.6865 17.649 10.5421 17.7088 10.3916 17.7088Z" fill="#414D63"/>
<path d="M14.2696 17.7088C14.1191 17.7088 13.9747 17.649 13.8683 17.5426C13.7618 17.4362 13.7021 17.2918 13.7021 17.1413V9.19579C13.7021 9.04527 13.7618 8.90092 13.8683 8.79449C13.9747 8.68805 14.1191 8.62825 14.2696 8.62825C14.4201 8.62825 14.5645 8.68805 14.6709 8.79449C14.7773 8.90092 14.8371 9.04527 14.8371 9.19579V17.1413C14.8371 17.2918 14.7773 17.4362 14.6709 17.5426C14.5645 17.649 14.4201 17.7088 14.2696 17.7088Z" fill="#414D63"/>
<path d="M19.0936 6.46196H5.56754C5.41702 6.46196 5.27267 6.40219 5.16624 6.29576C5.0598 6.18932 5 6.04494 5 5.89442C5 5.7439 5.0598 5.59955 5.16624 5.49312C5.27267 5.38668 5.41702 5.32688 5.56754 5.32688H19.0936C19.2442 5.32688 19.3885 5.38668 19.495 5.49312C19.6014 5.59955 19.6612 5.7439 19.6612 5.89442C19.6612 6.04494 19.6014 6.18932 19.495 6.29576C19.3885 6.40219 19.2442 6.46196 19.0936 6.46196Z" fill="#414D63"/>
<path d="M14.5534 4.13507H10.0602C9.90963 4.13507 9.76529 4.07527 9.65885 3.96884C9.55242 3.8624 9.49262 3.71806 9.49262 3.56754C9.49262 3.41702 9.55242 3.27267 9.65885 3.16624C9.76529 3.0598 9.90963 3 10.0602 3H14.5534C14.7039 3 14.8482 3.0598 14.9547 3.16624C15.0611 3.27267 15.1209 3.41702 15.1209 3.56754C15.1209 3.71806 15.0611 3.8624 14.9547 3.96884C14.8482 4.07527 14.7039 4.13507 14.5534 4.13507Z" fill="#414D63"/>
</svg>
