<svg width="24" height="24" viewBox="0 0 24 24" fill="none" xmlns="http://www.w3.org/2000/svg">
<path fill-rule="evenodd" clip-rule="evenodd" d="M12 15.8571C14.1302 15.8571 15.8571 14.1302 15.8571 12C15.8571 9.86976 14.1302 8.14286 12 8.14286C9.86976 8.14286 8.14286 9.86976 8.14286 12C8.14286 14.1302 9.86976 15.8571 12 15.8571ZM14.5714 12C14.5714 13.4201 13.4201 14.5714 12 14.5714C10.5799 14.5714 9.42857 13.4201 9.42857 12C9.42857 10.5799 10.5799 9.42857 12 9.42857C13.4201 9.42857 14.5714 10.5799 14.5714 12Z" fill="#414D63"/>
<path fill-rule="evenodd" clip-rule="evenodd" d="M3 11.3569V12.6426C3 13.6379 3.75382 14.457 4.72163 14.5602C4.80378 14.7938 4.89683 15.0221 5.00014 15.2447C4.36597 16.0024 4.40487 17.1326 5.11687 17.8446L6.02601 18.7537C6.7218 19.4495 7.81696 19.5025 8.57359 18.9127C8.85283 19.0514 9.14175 19.1736 9.43905 19.2783C9.54229 20.2461 10.3614 21 11.3567 21H12.6424C13.6374 21 14.4564 20.2465 14.5599 19.2789C14.8301 19.1839 15.0934 19.0744 15.3487 18.9511C16.1029 19.4998 17.165 19.434 17.8452 18.7537L18.7544 17.8446C19.4346 17.1643 19.5005 16.1023 18.9519 15.3481C19.0749 15.093 19.1844 14.8301 19.2793 14.5601C20.2467 14.4564 21 13.6375 21 12.6426V11.3569C21 10.362 20.2467 9.54313 19.2793 9.43944C19.1746 9.1417 19.0522 8.8524 18.9134 8.57282C19.5027 7.81622 19.4496 6.72142 18.7539 6.02581L17.8448 5.11666C17.133 4.40484 16.0031 4.36578 15.2455 4.99948C15.0225 4.89601 14.7938 4.80284 14.5599 4.72059C14.4562 3.75328 13.6372 3 12.6424 3H11.3567C10.3616 3 9.54255 3.75363 9.43911 4.72125C9.17644 4.81369 8.9203 4.91991 8.67161 5.03902C7.91428 4.36447 6.75277 4.39035 6.02646 5.11666L5.11731 6.0258C4.391 6.75213 4.36512 7.91365 5.03969 8.67098C4.92045 8.91992 4.81414 9.17633 4.72163 9.43931C3.75382 9.54255 3 10.3617 3 11.3569ZM13.2853 4.92857C13.2853 4.57353 12.9975 4.28571 12.6424 4.28571H11.3567C11.0016 4.28571 10.7138 4.57353 10.7138 4.92857V5.17459C10.7138 5.48029 10.4974 5.74035 10.2038 5.82563C9.74781 5.95809 9.31269 6.13972 8.90461 6.36438C8.6368 6.51181 8.29988 6.48095 8.08371 6.26478L7.84473 6.02581C7.59368 5.77475 7.18665 5.77475 6.93559 6.0258L6.02646 6.93494C5.7754 7.18599 5.7754 7.59303 6.02646 7.84408L6.26544 8.08307C6.48161 8.29923 6.51248 8.63616 6.36504 8.90397C6.14026 9.31228 5.95856 9.74762 5.82607 10.2039C5.74082 10.4976 5.48075 10.714 5.175 10.714H4.92857C4.57353 10.714 4.28571 11.0019 4.28571 11.3569V12.6426C4.28571 12.9977 4.57353 13.2855 4.92857 13.2855H5.175C5.48075 13.2855 5.74081 13.502 5.82607 13.7956C5.95042 14.2239 6.11813 14.6337 6.32412 15.0201C6.4663 15.2867 6.43347 15.6188 6.21978 15.8325L6.02601 16.0263C5.77496 16.2774 5.77496 16.6844 6.02601 16.9355L6.93515 17.8446C7.1862 18.0956 7.59323 18.0956 7.84428 17.8446L8.0007 17.6882C8.21935 17.4695 8.56107 17.4407 8.82994 17.5934C9.25947 17.8374 9.71985 18.0333 10.2038 18.1739C10.4974 18.2592 10.7138 18.5193 10.7138 18.825V19.0714C10.7138 19.4265 11.0016 19.7143 11.3567 19.7143H12.6424C12.9975 19.7143 13.2853 19.4265 13.2853 19.0714V18.8255C13.2853 18.5197 13.5018 18.2596 13.7954 18.1744C14.2521 18.0419 14.6877 17.8601 15.0963 17.6352C15.3641 17.4878 15.701 17.5186 15.9172 17.7348L16.027 17.8446C16.278 18.0956 16.6851 18.0956 16.9361 17.8446L17.8452 16.9355C18.0963 16.6844 18.0963 16.2774 17.8452 16.0263L17.7354 15.9165C17.5193 15.7003 17.4884 15.3634 17.6359 15.0956C17.8607 14.6873 18.0423 14.2519 18.1748 13.7956C18.2601 13.502 18.5202 13.2855 18.8259 13.2855H19.0714C19.4265 13.2855 19.7143 12.9977 19.7143 12.6426V11.3569C19.7143 11.0019 19.4265 10.714 19.0714 10.714H18.8259C18.5202 10.714 18.2601 10.4976 18.1748 10.2039C18.0342 9.71972 17.8382 9.25903 17.5941 8.82926C17.4413 8.56039 17.4702 8.21867 17.6888 8.00002L17.8448 7.84408C18.0958 7.59303 18.0958 7.18599 17.8448 6.93494L16.9357 6.0258C16.6846 5.77475 16.2776 5.77475 16.0265 6.0258L15.8332 6.21909C15.6195 6.43278 15.2874 6.46562 15.0207 6.32344C14.6342 6.11731 14.224 5.94953 13.7954 5.82515C13.5018 5.73992 13.2853 5.47983 13.2853 5.17406V4.92857Z" fill="#414D63"/>
</svg>
