<svg width="24" height="24" viewBox="0 0 24 24" fill="none" xmlns="http://www.w3.org/2000/svg">
<path d="M20.4682 10.3162H18.8936L18.4814 9.05899H16.121L15.7131 10.3162H14.1471L16.4788 4.03014H18.1894L20.4682 10.3162ZM18.0963 7.8018L17.4236 5.71813C17.3711 5.56002 17.3348 5.37152 17.3148 5.15263H17.279C17.2676 5.33692 17.2299 5.51936 17.1659 5.69986L16.4803 7.8018H18.0963ZM3.92979 19.9979V13.7119H6.27442C6.99297 13.7119 7.54525 13.84 7.93125 14.0963C8.31726 14.3526 8.51024 14.7137 8.51024 15.1795C8.51024 15.5172 8.39288 15.8126 8.15812 16.0656C7.92339 16.3187 7.62327 16.4948 7.25779 16.5939V16.6122C7.72157 16.6673 8.09203 16.8327 8.36926 17.1082C8.64645 17.3837 8.78507 17.7192 8.78507 18.1149C8.78507 18.693 8.57324 19.1514 8.14953 19.49C7.72586 19.8286 7.14709 19.9979 6.41326 19.9979H3.92979ZM5.39553 14.7895V16.2263H6.01531C6.30637 16.2263 6.53538 16.158 6.70238 16.0214C6.86938 15.8848 6.95291 15.6968 6.95291 15.4573C6.95291 15.0121 6.60984 14.7895 5.92372 14.7895H5.39553ZM5.39553 17.3039V18.9203H6.1699C6.50008 18.9203 6.75894 18.8462 6.94647 18.6979C7.13395 18.5496 7.22774 18.3474 7.22774 18.0911C7.22774 17.846 7.13562 17.6535 6.95145 17.5137C6.76727 17.3738 6.50962 17.3039 6.17849 17.3039H5.39553ZM9.75109 4.31188C11.3947 3.8499 13.0652 3.9167 14.5734 4.4095L13.3601 5.82694C12.3548 5.61319 11.2826 5.63301 10.2245 5.93045C8.01898 6.55038 6.41343 8.22506 5.81452 10.2354L8.98917 9.34305L7.81149 11.4257L3.68365 12.586L2.5 8.53959L3.67768 6.45693L4.42771 9.02098C5.33434 6.81098 7.23431 5.01932 9.75109 4.31188ZM14.2489 19.6881C12.6053 20.1501 10.9347 20.0833 9.42653 19.5905L10.6399 18.1731C11.6452 18.3868 12.7174 18.367 13.7755 18.0695C15.981 17.4496 17.5865 15.7749 18.1855 13.7646L15.0108 14.657L16.1885 12.5743L20.3164 11.414L21.5 15.4604L20.3223 17.5431L19.5723 14.979C18.6657 17.189 16.7657 18.9807 14.2489 19.6881Z" fill="#414D63"/>
</svg>
